<svg width="198" height="28" viewBox="0 0 198 28" fill="none" xmlns="http://www.w3.org/2000/svg">
<g clip-path="url(#clip0_443_9680)">
<path d="M97.9099 8.23703C97.6537 9.04929 97.1356 9.7357 96.9022 10.5594C96.7941 10.9369 96.5664 11.2744 96.4013 11.6405C95.4449 13.7112 94.5682 15.8219 93.6289 17.9098C93.2475 18.7506 92.8262 19.58 92.5245 20.4552C92.4505 20.6726 92.2968 20.6325 92.1545 20.6325H90.1962V20.6039C89.6041 20.6039 89.0121 20.6039 88.42 20.5982C87.9988 20.5982 87.623 20.4724 87.2359 20.3008C86.3934 19.9232 85.5338 19.58 84.6742 19.2425C83.399 18.7506 82.1409 18.2072 80.8714 17.6867C79.8069 17.2519 78.7309 16.8401 77.6664 16.3939C76.9605 16.0965 76.2432 15.8162 75.5316 15.5359C75.247 15.4272 74.9623 15.3243 74.672 15.2499C74.4557 15.1984 74.319 15.2499 74.2166 15.5245C73.8921 16.4454 73.4993 17.3377 73.0894 18.2301C72.7649 18.9451 72.4063 19.6487 72.1729 20.4037C72.1159 20.5753 72.0078 20.6268 71.8598 20.6268C70.9432 20.6325 70.0324 20.6325 69.1216 20.6325C68.9223 20.6325 68.8882 20.5582 68.9735 20.3694C70.0153 18.0013 71.0742 15.6389 72.0875 13.2593C72.5714 12.1324 73.1008 11.0227 73.579 9.89014C73.8295 9.28381 74.1767 8.7118 74.3077 8.05399C74.3304 7.96246 74.3874 7.87666 74.5297 7.87094C75.839 7.76798 77.154 7.76798 78.4634 7.81946C79.2888 7.85378 80.0175 8.29995 80.786 8.58024C81.7253 8.92916 82.6134 9.42681 83.5584 9.75286C84.9019 10.2105 86.16 10.8568 87.4864 11.3373C88.6477 11.7606 89.7749 12.2583 90.9135 12.733C91.3461 12.9161 91.7958 13.0591 92.2228 13.2479C92.3936 13.3222 92.4391 13.2593 92.5017 13.1335C92.9458 12.2697 93.35 11.3831 93.7257 10.4793C93.9648 9.89014 94.2494 9.32385 94.517 8.74612C94.5454 8.6832 94.5796 8.62028 94.6081 8.55164C94.7978 8.05208 95.1584 7.8023 95.6897 7.8023C96.3387 7.8023 96.9933 7.79658 97.6423 7.80802C98.0579 7.81374 98.0294 7.86522 97.9099 8.23703Z" fill="#14382B"/>
<path d="M133.78 8.08837C133.108 9.55272 132.442 11.0171 131.782 12.4929C131.184 13.8199 130.552 15.1356 130 16.4741C129.453 17.7897 128.844 19.071 128.315 20.3866C128.229 20.5868 128.133 20.644 127.922 20.6383C125.691 20.6269 123.465 20.6269 121.233 20.6269C121.165 20.6269 121.091 20.6383 121.022 20.6326C120.732 20.6097 120.692 20.5296 120.835 20.2779C121.244 19.5572 121.518 18.7736 121.865 18.0242C122.138 17.4293 122.355 16.8173 122.616 16.2167C122.713 16.005 122.787 15.8048 122.736 15.5703C122.446 15.576 122.235 15.7762 122.019 15.9078C120.897 16.6056 119.793 17.3321 118.683 18.0414C117.635 18.7049 116.554 19.317 115.552 20.0491C114.948 20.4839 114.351 20.6154 113.628 20.6498C112.865 20.6898 112.449 20.3866 112.034 19.8146C111.02 18.4075 109.961 17.0346 108.823 15.7247C108.572 15.4273 108.396 15.4616 108.242 15.8105C107.935 16.4912 107.61 17.1662 107.309 17.8526C106.973 18.5962 106.643 19.3513 106.318 20.1006C106.176 20.4209 105.994 20.6383 105.595 20.6269C104.787 20.6097 103.984 20.6212 103.176 20.6212C102.908 20.6269 102.874 20.5868 103.011 20.3123C103.375 19.5915 103.671 18.8365 103.99 18.0986C104.417 17.1262 104.844 16.1537 105.271 15.1813C105.732 14.1345 106.204 13.0878 106.671 12.041C107.183 10.8741 107.656 9.69572 108.225 8.55741C108.254 8.50021 108.282 8.44873 108.305 8.39153C108.464 7.99875 108.753 7.80236 109.17 7.80236C110.07 7.80236 110.975 7.80808 111.874 7.79664C112.102 7.79664 112.244 7.85956 112.358 8.06548C113.013 9.24955 113.77 10.3707 114.442 11.549C115.096 12.6931 115.836 13.7913 116.537 14.9182C116.776 15.3014 117.009 15.6904 117.242 16.0851C117.316 16.2109 117.351 16.2853 117.527 16.1709C120.442 14.289 123.356 12.4071 126.277 10.5309C127.643 9.6614 129.021 8.79766 130.398 7.94536C130.632 7.80808 130.922 7.8138 131.19 7.80808C131.992 7.79664 132.801 7.80808 133.609 7.79664C133.877 7.79092 133.871 7.88244 133.78 8.08837Z" fill="#14382B"/>
<path d="M63.6907 7.9109C63.6166 8.3399 63.3719 8.70599 63.2011 9.10068C62.5293 10.6222 61.812 12.1209 61.1403 13.6425C60.4287 15.2555 59.757 16.8915 59.0511 18.5103C58.829 19.0194 58.5444 19.4999 58.4078 20.0376C58.2711 20.5466 57.884 20.5695 57.4969 20.5924C57.0358 20.6267 56.5747 20.621 56.1136 20.621C54.4171 20.621 52.7207 20.6096 51.0299 20.5981C50.5119 20.5924 50.5062 20.581 50.7112 20.1062C51.2121 18.9565 51.7245 17.801 52.2425 16.657C52.3677 16.3824 52.5385 16.125 52.6182 15.8275C52.6353 15.7589 52.6922 15.6903 52.641 15.6331C52.5841 15.5701 52.493 15.5987 52.4133 15.6159C52.049 15.7189 51.7928 15.9991 51.4911 16.1936C49.8743 17.2175 48.2746 18.2586 46.675 19.2997C46.0488 19.7058 45.4624 20.1863 44.7679 20.4952C44.5459 20.5924 44.3239 20.6382 44.0791 20.6267C43.7944 20.621 43.5098 20.6038 43.2309 20.6267C42.7185 20.6668 42.3997 20.4723 42.0809 20.049C40.9481 18.5618 39.8551 17.0402 38.6539 15.6045C38.4034 15.307 38.3465 15.2956 38.1814 15.6502C37.8341 16.3767 37.521 17.1089 37.2022 17.8467C36.8151 18.7334 36.3597 19.5914 36.0181 20.5009C35.9669 20.6382 35.8473 20.6382 35.7278 20.6382C34.7885 20.621 33.8549 20.6096 32.9156 20.5981C32.8131 20.5981 32.6765 20.6324 32.6366 20.5123C32.5968 20.4094 32.722 20.3464 32.7903 20.3007C33.223 20.009 33.3141 19.5227 33.5019 19.0937C34.2875 17.3091 35.0845 15.5301 35.8303 13.7283C36.4963 12.1152 37.2592 10.5479 37.9252 8.94052C38.0391 8.66595 38.1643 8.39139 38.2326 8.09966C38.2725 7.9109 38.4034 7.79077 38.6254 7.83653C38.6596 7.84225 38.688 7.84797 38.7222 7.84797C38.9328 7.84797 39.1435 7.84797 39.3541 7.84225C39.4452 7.87085 39.542 7.90518 39.5533 7.75073C39.8892 7.82509 40.2308 7.81365 40.5666 7.79649C40.9936 7.76789 41.4092 7.89374 41.8361 7.87086C41.9955 7.85941 42.0638 7.97954 42.1322 8.09394C43.3618 10.0674 44.6028 12.0351 45.7812 14.0429C46.2082 14.7808 46.675 15.5015 47.1133 16.2337C47.1987 16.3767 47.2556 16.3309 47.3524 16.2566C48.6845 15.2613 50.1305 14.4376 51.5195 13.5338C52.6011 12.8302 53.6828 12.1266 54.7929 11.4574C56.5178 10.422 58.1857 9.28945 59.8936 8.21406C60.3547 7.92234 60.8272 7.77361 61.3851 7.79649C62.1479 7.82509 62.9164 7.77933 63.6907 7.9109Z" fill="#14382B"/>
<path d="M159.733 20.5352C159.671 20.6496 159.517 20.5924 159.409 20.5982C156.693 20.6039 153.978 20.5924 151.262 20.6382C150.653 20.6439 150.346 20.4494 150.021 19.9289C148.974 18.2472 147.852 16.6112 146.765 14.9524C146.258 14.1745 145.689 13.4366 145.217 12.6357C145.029 12.3154 144.909 12.3097 144.579 12.5156C141.909 14.1745 139.336 15.9877 136.706 17.6981C136.49 17.8411 136.262 17.9669 136.04 18.1099C135.955 18.1671 135.829 18.2186 135.863 18.3444C135.892 18.4474 136.011 18.436 136.103 18.4531C136.723 18.5618 137.344 18.5732 137.97 18.579C139.9 18.5904 141.835 18.6133 143.765 18.5675C144.386 18.5561 144.995 18.579 145.609 18.6648C145.831 18.6934 145.871 18.7849 145.803 18.9908C145.632 19.4942 145.274 19.906 145.131 20.4266C145.086 20.5982 144.938 20.6496 144.767 20.6496C140.583 20.6382 136.399 20.6268 132.214 20.621C131.537 20.621 130.86 20.6096 130.188 20.6039C130.074 20.6039 129.949 20.6268 129.863 20.478C131.679 19.3226 133.416 18.0584 135.226 16.9144C136.672 16.0049 138.078 15.0382 139.501 14.1001C140.993 13.122 142.484 12.1553 143.976 11.1771C145.57 10.1303 147.164 9.07783 148.758 8.02533C149.002 7.86517 149.27 7.80796 149.56 7.80224C150.329 7.77936 151.092 7.8194 151.854 7.87089C151.968 7.87661 152.037 7.89949 152.105 8.01389C152.873 9.27232 153.648 10.5307 154.422 11.7892C156.027 14.3918 157.633 16.9945 159.238 19.6029C159.357 19.7916 159.46 19.9861 159.614 20.1577C159.705 20.255 159.819 20.3922 159.733 20.5352Z" fill="#14382B"/>
<path d="M185.157 8.20262C184.964 8.63735 184.77 9.06636 184.571 9.50109C184.463 9.73561 184.303 9.8729 184.019 9.74705C183.927 9.70701 183.808 9.73561 183.7 9.73561C181.235 9.73561 178.77 9.71273 176.305 9.74705C175.69 9.75849 175.052 9.72417 174.449 9.88434C174.056 9.98158 173.686 10.1417 173.407 10.4449C172.741 11.1828 172.178 11.9779 171.853 12.9274C171.654 13.5052 171.346 14.0371 171.096 14.5863C170.754 15.3356 170.419 16.0964 170.242 16.8915C170.145 17.3148 170.128 17.8067 170.424 18.2243C170.532 18.3787 170.629 18.4645 170.811 18.4645C171.085 18.4645 171.352 18.4702 171.625 18.4702C174.495 18.4645 177.364 18.4645 180.233 18.4588C180.318 18.4588 180.398 18.4702 180.483 18.4702C180.506 18.4702 180.529 18.4817 180.552 18.4874C180.574 18.4988 180.597 18.5103 180.62 18.5217C180.631 18.556 180.637 18.5904 180.643 18.6247C180.455 19.2482 180.136 19.8087 179.857 20.3865C179.749 20.6096 179.464 20.5981 179.231 20.5981C176.293 20.6038 173.35 20.6153 170.413 20.621C168.694 20.6267 166.974 20.6038 165.255 20.6267C164.464 20.6439 163.849 20.3293 163.32 19.7744C162.426 18.842 162.255 17.7152 162.437 16.4854C162.54 15.8275 162.671 15.1697 162.916 14.5634C163.246 13.7569 163.656 12.9789 164.162 12.2525C165.05 10.9883 166.115 9.91294 167.367 9.03776C168.381 8.32846 169.474 7.79077 170.772 7.79077C175.479 7.81365 180.187 7.80221 184.895 7.80221C185.282 7.80221 185.311 7.84225 185.157 8.20262Z" fill="#14382B"/>
<path d="M27.9058 14.775C27.7065 17.2061 27.0177 19.4598 25.6856 21.5248C24.6267 23.1664 23.3174 24.5278 21.7177 25.6089C20.4653 26.4555 19.1048 27.0733 17.6474 27.468C16.6512 27.7311 15.6493 27.9199 14.6132 27.9771C13.3551 28.0457 12.1254 27.9313 10.9015 27.651C7.82171 26.9474 5.29412 25.3401 3.24473 22.9491C2.35666 21.908 1.6906 20.7297 1.1384 19.477C0.597592 18.2357 0.244641 16.9372 0.090936 15.593C-0.0513831 14.3574 -0.028612 13.1219 0.136478 11.8806C0.335725 10.3934 0.762682 8.97481 1.45151 7.65346C1.93539 6.71536 2.48759 5.81158 3.1878 5.00504C3.70584 4.41015 4.22388 3.80954 4.82731 3.31761C5.62999 2.64835 6.47252 2.01914 7.41752 1.52721C8.60162 0.915157 9.83695 0.463267 11.1406 0.194421C11.4992 0.12006 11.8579 0.0571383 12.2165 0.0113773C12.4442 -0.0172233 12.5125 0.0742987 12.4158 0.308824C11.6757 2.11638 10.9015 3.9125 9.97927 5.63426C9.15382 7.17297 8.24867 8.6602 7.2809 10.1131C6.64331 11.0684 6.31313 12.1495 6.07403 13.2649C5.92602 13.9399 5.85771 14.632 5.85771 15.3184C5.85201 16.3938 6.10249 17.4234 6.51807 18.4302C6.95641 19.4884 7.594 20.3865 8.43083 21.1301C9.46122 22.051 10.6738 22.6116 12.0514 22.8289C12.6833 22.9262 13.3095 22.9548 14.1122 22.9548C15.3817 23.0234 16.7366 22.7489 18.0345 22.1025C19.7424 21.2445 20.8069 19.8259 21.4786 18.0984C22.2016 16.2451 22.1902 14.3346 21.638 12.4355C21.2851 11.2114 20.5735 10.1646 19.8961 9.10065C18.6892 7.20157 17.5279 5.27961 16.617 3.22037C16.1901 2.25367 15.8314 1.26408 15.4329 0.285943C15.3305 0.0399779 15.4215 -0.0229434 15.6322 0.00565721C16.0762 0.0685786 16.5146 0.1315 16.9472 0.234462C18.1598 0.509028 19.3268 0.915157 20.4369 1.49289C21.3079 1.9505 22.1049 2.52823 22.8791 3.14028C23.7444 3.8267 24.4332 4.66184 25.1448 5.50269C25.8051 6.29207 26.1866 7.21301 26.6761 8.08247C26.9209 8.52864 27.012 9.06633 27.2226 9.53538C27.5756 10.3019 27.6041 11.137 27.7578 11.9436C27.9342 12.8759 27.9855 13.8255 27.9058 14.775Z" fill="#26A074"/>
<path d="M19.0992 12.4584C18.8715 11.7777 18.5015 11.137 18.1258 10.5135C17.1466 8.91187 16.1048 7.356 15.268 5.67429C14.7386 4.61034 14.2091 3.55784 13.9928 2.3795C13.953 2.16213 13.9871 1.92189 13.7879 1.68164C13.7309 2.09349 13.5943 2.45386 13.5317 2.79134C13.4463 3.24323 13.2584 3.64364 13.1047 4.04977C12.7973 4.84487 12.3875 5.5942 11.989 6.35498C11.414 7.45896 10.8276 8.55151 10.2356 9.64405C9.70047 10.6394 8.96041 11.5203 8.61884 12.6242C8.35698 13.4594 8.1008 14.3117 8.14065 15.1868C8.18619 16.022 8.36836 16.8514 8.70424 17.6408C9.64923 19.8831 12.211 21.4447 14.6646 20.9585C15.7974 20.7354 16.8221 20.3235 17.676 19.5055C18.7975 18.4302 19.3269 17.063 19.5717 15.5758C19.7482 14.5004 19.4294 13.4594 19.0992 12.4584ZM16.657 11.9435C15.9625 13.1962 15.2452 14.4375 14.5507 15.6845C14.3002 16.1249 13.9871 16.5254 13.7879 17.0001C13.7537 17.0802 13.7025 17.2404 13.5545 17.2232C13.4178 17.2061 13.4406 17.063 13.4008 16.9715C13.2528 16.6054 13.1161 16.2336 12.9738 15.8618C12.951 15.7932 13.0193 15.6902 12.8884 15.6616C12.7746 15.6445 12.7176 15.7131 12.655 15.7875C12.0174 16.5425 11.3855 17.2976 10.7479 18.0469C10.5828 18.2357 10.4064 18.413 10.2242 18.5789C10.1957 18.6018 10.116 18.6761 10.042 18.6075C9.95664 18.5274 10.0534 18.4816 10.0819 18.4359C11.1635 16.7027 12.2394 14.9695 13.3268 13.2363C13.3951 13.1219 13.4577 12.9846 13.6569 12.956C13.674 13.3736 13.8676 13.7339 13.9473 14.1229C14.0099 14.4204 14.1237 14.3403 14.2376 14.203C14.7443 13.5909 15.2452 12.9732 15.7405 12.3497C16.2358 11.7319 16.7253 11.1141 17.2662 10.5421C17.306 10.5021 17.38 10.4906 17.4597 10.4563C17.2605 11.0169 16.9246 11.463 16.657 11.9435Z" fill="#14382B"/>
<path d="M72.9642 8.08243C72.3778 9.36374 71.7971 10.645 71.2222 11.9264C70.6757 13.1562 70.1405 14.3974 69.5997 15.633C69.1557 16.6397 68.7117 17.6408 68.2164 18.6246C67.9374 19.1852 67.7211 19.7744 67.4934 20.3578C67.4251 20.5351 67.3454 20.6095 67.1405 20.6095C65.9791 20.5981 64.8235 20.6038 63.6622 20.6038V20.6267H60.2465C60.1441 20.6267 60.0074 20.661 59.9562 20.5523C59.9107 20.4551 60.0245 20.3693 60.0644 20.2777C60.2921 19.7915 60.497 19.2939 60.7076 18.8019C61.3338 17.3547 61.96 15.9018 62.5863 14.4604C63.2181 13.0189 63.8785 11.5889 64.4762 10.1302C64.7609 9.44382 65.1081 8.78029 65.3472 8.07099C65.3871 7.95087 65.4497 7.87079 65.5977 7.86507C65.9393 7.85935 66.2809 7.80787 66.6224 7.80787C68.649 7.79643 70.6757 7.79643 72.7023 7.80215C72.8731 7.80215 73.1292 7.72778 72.9642 8.08243Z" fill="#14382B"/>
<path d="M106.779 8.25424C106.443 9.19806 105.948 10.0732 105.601 11.0056C105.208 12.0524 104.661 13.0305 104.246 14.0659C103.864 15.004 103.386 15.902 102.999 16.8401C102.675 17.6181 102.31 18.3846 102.02 19.1854C101.883 19.5629 101.661 19.929 101.491 20.3065C101.4 20.5125 101.223 20.6097 100.984 20.6097C99.0769 20.6097 97.1698 20.6154 95.257 20.6211C94.9041 20.6211 94.5511 20.644 94.1925 20.6383C94.0672 20.6383 93.8566 20.6726 93.9932 20.3923C94.5967 19.174 95.0862 17.9098 95.6327 16.6628C96.1565 15.4673 96.6916 14.2775 97.1869 13.0649C97.443 12.4414 97.7675 11.8408 98.0066 11.2115C98.4108 10.1533 98.9459 9.14658 99.3501 8.08836C99.4298 7.86527 99.5721 7.79663 99.8055 7.79663C100.91 7.80807 102.014 7.80235 103.113 7.80235H106.46C106.904 7.80235 106.921 7.84239 106.779 8.25424Z" fill="#14382B"/>
<path d="M197.624 5.33677C196.935 3.64362 195.581 2.65404 193.856 2.15639C193.474 2.0477 193.07 2.05914 192.683 1.99622C191.863 1.85322 191.072 1.99622 190.303 2.21359C189.586 2.41379 188.937 2.7856 188.334 3.25465C187.685 3.7523 187.201 4.38151 186.876 5.10797C186.461 6.04607 186.307 7.05281 186.37 8.08243C186.432 9.11777 186.717 10.0902 187.354 10.8853C188.755 12.6356 190.588 13.4136 192.831 13.1733C193.839 13.0589 194.789 12.8015 195.609 12.178C196.56 11.4573 197.448 10.7137 197.715 9.42666C197.841 8.84321 198.006 8.27692 197.977 7.60194C198.057 6.86405 197.92 6.05751 197.624 5.33677ZM196.201 8.19683C196.15 8.99193 195.894 9.68407 195.421 10.2961C194.943 10.9025 194.328 11.3029 193.605 11.5946C192.689 11.9607 191.761 11.955 190.861 11.709C190.11 11.4973 189.478 10.9997 188.988 10.3648C188.1 9.21502 188.021 7.91083 188.254 6.538C188.482 5.22809 189.273 4.33575 190.366 3.70082C190.878 3.40337 191.482 3.30041 191.994 3.37477C193.81 3.29469 195.034 4.09551 195.831 5.57702C196.059 6.00031 196.207 6.46364 196.195 6.97845C196.19 7.38458 196.224 7.78499 196.201 8.19683Z" fill="#14382B"/>
<path d="M39.5533 7.75083C39.5419 7.90528 39.4451 7.87096 39.3541 7.84236C39.3825 7.72223 39.4679 7.73367 39.5533 7.75083Z" fill="#26A074"/>
<path d="M38.7223 7.84859C38.6881 7.84859 38.6596 7.84263 38.6254 7.83667C38.6596 7.83667 38.6881 7.84263 38.7223 7.84859Z" fill="#26A074"/>
<path d="M180.557 18.488C180.557 18.488 180.512 18.4761 180.489 18.4761C180.512 18.4761 180.535 18.488 180.557 18.488Z" fill="#26A074"/>
<path d="M180.643 18.6247C180.637 18.5904 180.631 18.556 180.62 18.5217C180.688 18.5389 180.671 18.5789 180.643 18.6247Z" fill="#26A074"/>
<path d="M194.778 6.78417C194.852 6.49817 194.818 6.22932 194.772 5.94332C194.675 5.32554 194.226 4.82217 193.645 4.66201C192.506 4.3474 191.345 4.47325 190.19 4.43892C189.962 4.4332 189.837 4.54761 189.854 4.79357C189.871 5.0853 189.894 5.38275 189.894 5.68019C189.899 7.2475 189.894 8.82054 189.888 10.3879C189.888 10.5251 189.876 10.6567 190.053 10.6967C190.076 10.6967 190.098 10.7025 190.121 10.7025C190.292 10.6967 190.468 10.6853 190.645 10.6796C190.656 10.6681 190.673 10.6681 190.685 10.6796C190.821 10.7311 190.964 10.691 191.106 10.6796C191.191 10.6796 191.277 10.6681 191.271 10.548C191.26 9.89592 191.322 9.24383 191.237 8.59173C191.22 8.43729 191.117 8.21421 191.305 8.17988C191.516 8.13984 191.801 8.02544 191.966 8.33433C192.228 8.82626 192.552 9.28959 192.763 9.79868C193.053 10.4794 193.451 10.8683 194.231 10.691C194.357 10.6624 194.516 10.7425 194.596 10.6167C194.681 10.4794 194.533 10.3821 194.465 10.2734C194.078 9.63852 193.679 9.00358 193.298 8.36293C193.11 8.04832 193.15 7.9854 193.514 7.93392C194.22 7.82524 194.59 7.48203 194.778 6.77845V6.78417ZM193.343 6.46385C193.303 6.76701 193.121 6.93862 192.825 6.95006C192.376 6.97294 191.926 6.97294 191.482 6.98438C191.283 6.98438 191.163 6.92146 191.203 6.69265C191.271 6.36661 191.294 6.03484 191.271 5.70879C191.26 5.58295 191.345 5.57723 191.431 5.57723C191.63 5.58295 191.835 5.57723 192.034 5.57723C192.341 5.58295 192.649 5.55435 192.945 5.66303C193.292 5.79459 193.4 5.98908 193.343 6.46385Z" fill="#14382B"/>
<path d="M190.685 10.6794L190.662 10.6966L190.645 10.6794C190.645 10.6794 190.673 10.668 190.685 10.6794Z" fill="#26A074"/>
</g>
<defs>
<clipPath id="clip0_443_9680">
<rect width="198" height="28" fill="white"/>
</clipPath>
</defs>
</svg>
